<svg xmlns="http://www.w3.org/2000/svg" width="66" height="76" fill="none" viewBox="0 0 66 76"><path fill="#CCC" d="M13.9213 56.8962L8.34179 53.4137C9.40668 49.9629 18.139 34.3095 23.3562 34.75C20.3315 42.6635 18.6367 49.7139 13.9213 56.8962V56.8962ZM24.8906 38.2117C22.3932 45.6727 19.5937 52.5812 16.069 58.1643L32.9567 67.9382L59.6452 52.5617V38.3037C57.0611 38.5856 55.483 40.0425 54.6197 42.4043C53.2888 46.0443 47.9267 50.3496 43.6045 44.5468C36.7327 55.504 30.2909 53.621 24.8906 38.2118V38.2117ZM22.5192 32.6453C18.1081 23.2141 9.73458 23.092 6.14833 37.1551V51.9046C8.63496 47.4393 16.464 33.197 22.5192 32.6453ZM58.3744 36.1015C53.8943 32.7419 47.2004 36.8327 44.6193 42.7473C47.0348 46.7321 49.4622 45.9108 51.5117 43.9814C53.1616 42.4282 53.7364 37.6904 58.3744 36.1015ZM38.8819 36.3598C34.7009 28.3539 31.1592 22.1176 26.5996 33.8065C30.3767 36.7669 34.9028 39.7661 38.8819 36.3599V36.3598ZM42.4735 42.9437C41.5741 41.577 40.6863 39.934 39.8595 38.2739C35.8847 41.4074 30.8479 39.8877 25.8139 35.8098C28.8988 43.7511 31.3169 48.1611 33.7323 49.3549C36.4615 50.7037 40.1454 47.5781 42.4735 42.9437V42.9437ZM4.48791 21.5646V54.4354L32.955 70.8709L61.422 54.4354V21.5646L32.955 5.12911L4.48791 21.5646ZM65.9081 19V57L32.955 76L0.00183105 57V19L32.955 0L65.9081 19ZM59.6452 33.3769C54.7432 25.981 50.616 25.5454 47.5939 27.6799C44.8436 29.622 42.9706 34.2493 41.4723 36.6841C42.138 38.1778 42.7652 39.0104 43.493 40.3878C47.0043 33.706 53.5306 29.7883 59.6452 34.3392V33.3769Z"/></svg>