<svg xmlns="http://www.w3.org/2000/svg" width="78" height="79" fill="none" viewBox="0 0 78 79"><rect width="78" height="79" fill="#64FFDA" rx="39"/><path fill="#000" d="M58.5915 20.0647L19.4023 35.1721L31.0259 39.9627C34.4235 41.361 37.1229 44.04 38.5311 47.4114L43.3597 58.9413L58.5915 20.0647ZM63.0373 21.6934L47.8055 60.5748C46.8427 63.0346 44.0721 64.2931 41.6169 63.3928C41.0187 63.1736 40.4725 62.8341 40.0128 62.3956C39.553 61.9571 39.1895 61.4291 38.9451 60.8447L34.1142 49.3099C33.1744 47.0635 31.3746 45.2787 29.1099 44.3474L17.4886 39.5567C15.072 38.5609 13.9695 35.793 15.0262 33.3715C15.2858 32.7795 15.6609 32.2444 16.1297 31.7968C16.5986 31.3493 17.1521 30.9981 17.7582 30.7636L56.9475 15.6514C57.7988 15.312 58.7319 15.2282 59.6309 15.4105C60.5298 15.5928 61.355 16.0332 62.0037 16.6769C62.6525 17.3206 63.0964 18.1392 63.2801 19.0311C63.4639 19.923 63.3795 20.8488 63.0373 21.6934Z"/></svg>