<svg width="76" height="76" viewBox="0 0 76 76" fill="none" xmlns="http://www.w3.org/2000/svg">
<path fill-rule="evenodd" clip-rule="evenodd" d="M0 0H76V76H0V0ZM58.0988 63.7133C54.5743 63.7133 52.5825 61.8767 51.053 59.375L45.2485 62.7475C47.3448 66.8895 51.6293 70.0498 58.2635 70.0498C65.0465 70.0498 70.0973 66.5285 70.0973 60.097C70.0973 54.1342 66.671 51.4837 60.6037 48.8775L58.8177 48.1143C55.7523 46.7843 54.4255 45.9198 54.4255 43.776C54.4255 42.0438 55.7555 40.717 57.8455 40.717C59.8943 40.717 61.2148 41.5815 62.4403 43.776L68.001 40.2072C65.6482 36.0683 62.3865 34.4882 57.8455 34.4882C51.4678 34.4882 47.386 38.5668 47.386 43.9248C47.386 49.7357 50.806 52.4875 55.9613 54.682L57.7473 55.4483C61.0058 56.8733 62.947 57.741 62.947 60.1888C62.947 62.2345 61.0565 63.7133 58.0988 63.7133V63.7133ZM30.4222 63.6658C27.968 63.6658 26.9452 61.9875 25.8242 59.9925L20.0102 63.5138C21.6948 67.0795 25.0072 70.0372 30.723 70.0372C37.0532 70.0372 41.3883 66.671 41.3883 59.2768V34.8935H34.2475V59.1818C34.2475 62.7507 32.7655 63.6658 30.419 63.6658H30.4222Z" fill="#CCCCCC"/>
</svg>
