<svg xmlns="http://www.w3.org/2000/svg" width="50" height="50" fill="none" viewBox="0 0 50 50"><rect width="50" height="50" fill="#000"/><path fill="#CCC" fill-rule="evenodd" d="M2.08334 5.91242C2.08334 4.89687 2.48677 3.9229 3.20488 3.20479C3.92299 2.48669 4.89695 2.08326 5.91251 2.08326H44.0833C44.5866 2.08244 45.0851 2.18089 45.5503 2.37298C46.0155 2.56507 46.4382 2.84703 46.7943 3.20271C47.1503 3.55839 47.4328 3.98081 47.6254 4.44578C47.818 4.91075 47.917 5.40914 47.9167 5.91242V44.0833C47.9172 44.5866 47.8185 45.0852 47.6262 45.5504C47.4339 46.0156 47.1517 46.4383 46.7959 46.7943C46.44 47.1504 46.0175 47.4327 45.5524 47.6253C45.0873 47.8179 44.5888 47.9169 44.0854 47.9166H5.91251C5.40948 47.9166 4.91138 47.8175 4.44667 47.6249C3.98196 47.4323 3.55974 47.1501 3.20414 46.7943C2.84855 46.4385 2.56654 46.0162 2.37422 45.5513C2.18191 45.0865 2.08307 44.5884 2.08334 44.0853V5.91242ZM20.225 19.5583H26.4313V22.6749C27.3271 20.8833 29.6188 19.2708 33.0625 19.2708C39.6646 19.2708 41.2292 22.8395 41.2292 29.3874V41.5166H34.5479V30.8791C34.5479 27.1499 33.6521 25.0458 31.3771 25.0458C28.2208 25.0458 26.9083 27.3145 26.9083 30.8791V41.5166H20.225V19.5583ZM8.76668 41.2312H15.45V19.2708H8.76668V41.2291V41.2312ZM16.4063 12.1083C16.4189 12.6805 16.317 13.2495 16.1068 13.7818C15.8965 14.3142 15.582 14.7992 15.1817 15.2083C14.7815 15.6175 14.3035 15.9426 13.776 16.1645C13.2484 16.3865 12.6818 16.5008 12.1094 16.5008C11.537 16.5008 10.9704 16.3865 10.4428 16.1645C9.91522 15.9426 9.43728 15.6175 9.03703 15.2083C8.63678 14.7992 8.32229 14.3142 8.11201 13.7818C7.90173 13.2495 7.79991 12.6805 7.81251 12.1083C7.83724 10.985 8.30081 9.91615 9.10394 9.13052C9.90706 8.34488 10.9859 7.90496 12.1094 7.90496C13.2329 7.90496 14.3117 8.34488 15.1148 9.13052C15.918 9.91615 16.3815 10.985 16.4063 12.1083Z" clip-rule="evenodd"/></svg>