<svg width="53" height="46" viewBox="0 0 53 46" fill="none" xmlns="http://www.w3.org/2000/svg">
<g clip-path="url(#clip0_310_43)">
<path d="M7.25167 34.7735C9.19521 36.0739 12.3463 36.0739 14.2899 34.7735C16.2334 33.473 16.2334 31.3645 14.2899 30.064C12.3463 28.7636 9.19521 28.7636 7.25167 30.064C5.30812 31.3645 5.30812 33.473 7.25167 34.7735Z" fill="#25CAAC"/>
<path d="M27.424 17.1133C30.3394 19.064 35.066 19.064 37.9813 17.1133C40.8966 15.1626 40.8966 11.9999 37.9813 10.0492C35.066 8.09854 30.3394 8.09854 27.424 10.0492C24.5087 11.9999 24.5087 15.1626 27.424 17.1133Z" fill="#25CAAC"/>
<path d="M16.7157 25.9434C19.1451 27.5689 23.084 27.5689 25.5134 25.9434C27.9429 24.3178 27.9429 21.6822 25.5134 20.0566C23.084 18.4311 19.1451 18.4311 16.7157 20.0566C14.2863 21.6822 14.2863 24.3178 16.7157 25.9434Z" fill="#25CAAC"/>
<path d="M1.09324 24.766C2.5509 25.7414 4.91424 25.7414 6.3719 24.766C7.82955 23.7907 7.82955 22.2094 6.3719 21.234C4.91424 20.2586 2.5509 20.2586 1.09324 21.234C-0.364416 22.2094 -0.364414 23.7907 1.09324 24.766Z" fill="#25CAAC"/>
<path d="M16.7157 7.10589C19.1451 8.73145 23.084 8.73145 25.5134 7.10589C27.9429 5.48032 27.9429 2.84475 25.5134 1.21918C23.084 -0.406393 19.1451 -0.406394 16.7157 1.21918C14.2863 2.84475 14.2863 5.48032 16.7157 7.10589Z" fill="#25CAAC"/>
<path d="M7.25166 15.936C9.19521 17.2364 12.3463 17.2364 14.2899 15.936C16.2334 14.6355 16.2334 12.527 14.2899 11.2266C12.3463 9.92614 9.19521 9.92614 7.25166 11.2266C5.30811 12.527 5.30813 14.6355 7.25166 15.936Z" fill="#25CAAC"/>
<path d="M16.7157 44.7809C19.1451 46.4064 23.084 46.4064 25.5134 44.7809C27.9429 43.1553 27.9429 40.5197 25.5134 38.8941C23.084 37.2686 19.1451 37.2686 16.7157 38.8941C14.2863 40.5197 14.2863 43.1553 16.7157 44.7809Z" fill="#25CAAC"/>
<path d="M40.2561 26.5321C43.1715 28.4827 47.8982 28.4827 50.8135 26.5321C53.7289 24.5814 53.7289 21.4187 50.8135 19.468C47.8982 17.5173 43.1715 17.5173 40.2561 19.468C37.3409 21.4187 37.3409 24.5814 40.2561 26.5321Z" fill="#25CAAC"/>
<path d="M27.424 35.9507C30.3394 37.9014 35.066 37.9014 37.9813 35.9507C40.8966 34 40.8966 30.8374 37.9813 28.8867C35.066 26.936 30.3394 26.936 27.424 28.8867C24.5087 30.8374 24.5087 34 27.424 35.9507Z" fill="#25CAAC"/>
</g>
<defs>
<clipPath id="clip0_310_43">
<rect width="53" height="46" fill="white"/>
</clipPath>
</defs>
</svg>
