<svg xmlns="http://www.w3.org/2000/svg" width="50" height="50" fill="none" viewBox="0 0 50 50"><g clip-path="url(#clip0_318_35)"><path fill="#CCC" d="M23.82 0.486716C23.9748 0.331505 24.1587 0.208363 24.3612 0.124341C24.5637 0.0403197 24.7808 -0.00292969 25 -0.00292969C25.2192 -0.00292969 25.4363 0.0403197 25.6388 0.124341C25.8413 0.208363 26.0252 0.331505 26.18 0.486716L29.4467 3.75338L23.38 13.5534L14.36 9.95005L23.82 0.486716ZM11.7967 12.5134L8.08666 16.2234L15.7333 25.9067L21.5967 16.4334L11.7967 12.5134ZM5.71333 18.5967L0.486659 23.82C0.410996 23.8966 0.342902 23.9804 0.283325 24.0701L12.0233 26.5867L5.71333 18.5967ZM2.19999 27.89L5.55666 31.2467L9.47333 29.4467L2.19999 27.8934V27.89ZM8.06666 33.7601L9.79999 35.4934L11.98 31.9667L8.06999 33.7601H8.06666ZM12.22 37.91L23.82 49.5101C23.9748 49.6653 24.1587 49.7884 24.3612 49.8724C24.5637 49.9564 24.7808 49.9997 25 49.9997C25.2192 49.9997 25.4363 49.9564 25.6388 49.8724C25.8413 49.7884 26.0252 49.6653 26.18 49.5101L27.2567 48.4334L27.6533 46.3834L16.0633 31.7001L12.22 37.91ZM31.46 44.2301L39.7533 35.9367L33.32 34.5601L31.46 44.2267V44.2301ZM42.56 33.1301L48.4967 27.1967L35.72 22.0834L33.95 31.2834L42.56 33.1301ZM49.7333 24.1C49.67 23.9993 49.5963 23.9054 49.5133 23.82L43.3 17.6101L38.74 19.7034L49.7333 24.1ZM40.7867 15.1L37.6633 11.9734L36.7033 16.9701L40.7867 15.0967V15.1ZM34.8167 9.12672L31.8667 6.17672L26.52 14.81L33.21 17.4901L34.8167 9.12672ZM19.9933 28.2934L32.2067 22.7001L30.69 30.59L19.9933 28.2967V28.2934ZM20.3733 31.7834L30.06 33.8601L28.4833 42.0601L20.3733 31.7834ZM20.6233 24.34L30.29 19.91L24.74 17.6901L20.6233 24.34Z"/></g><defs><clipPath id="clip0_318_35"><rect width="50" height="50" fill="#fff"/></clipPath></defs></svg>