<svg xmlns="http://www.w3.org/2000/svg" width="79" height="79" fill="none" viewBox="0 0 79 79"><rect width="79" height="79" fill="#64FFDA" rx="39.5"/><path fill="#000" d="M64.0815 54.1662L52.6723 43.7928C52.1329 43.3026 51.4242 43.0412 50.6958 43.0637C49.9673 43.0862 49.2761 43.3909 48.7681 43.9135L42.0517 50.8207C40.4351 50.512 37.1849 49.4988 33.8393 46.1616C30.4937 42.8133 29.4805 39.5547 29.1802 37.9493L36.0819 31.2301C36.6051 30.7225 36.9102 30.0312 36.9328 29.3025C36.9553 28.5739 36.6934 27.865 36.2026 27.326L25.8318 15.9197C25.3408 15.379 24.6583 15.0511 23.9293 15.0055C23.2003 14.9599 22.4823 15.2003 21.9277 15.6755L15.8372 20.8988C15.3519 21.3858 15.0623 22.0339 15.0232 22.7203C14.9811 23.422 14.1784 40.0431 27.0668 52.9369C38.3104 64.1777 52.3944 65 56.2732 65C56.8402 65 57.1882 64.9832 57.2808 64.9776C57.9671 64.9391 58.6149 64.6482 59.0996 64.1608L64.32 58.0675C64.7972 57.5147 65.0394 56.7972 64.9948 56.0683C64.9502 55.3394 64.6224 54.6568 64.0815 54.1662Z"/></svg>