<svg width="50" height="50" viewBox="0 0 50 50" fill="none" xmlns="http://www.w3.org/2000/svg">
<path d="M23.1313 21.7458C22.494 22.1138 21.9802 22.6624 21.6547 23.3224C21.3293 23.9824 21.2068 24.7241 21.3028 25.4537C21.3989 26.1832 21.7091 26.8679 22.1943 27.4212C22.6794 27.9745 23.3178 28.3715 24.0286 28.562C24.7393 28.7525 25.4906 28.728 26.1875 28.4915C26.8843 28.2551 27.4954 27.8173 27.9435 27.2336C28.3915 26.6498 28.6564 25.9463 28.7047 25.212C28.7529 24.4778 28.5824 23.7457 28.2146 23.1083C27.9703 22.685 27.6451 22.314 27.2574 22.0164C26.8697 21.7189 26.4272 21.5006 25.9552 21.3741C25.4831 21.2475 24.9908 21.2152 24.5062 21.279C24.0217 21.3428 23.5545 21.5014 23.1313 21.7458ZM39.8083 25.7833C39.5639 25.5041 39.3063 25.2243 39.0354 24.9437C39.2243 24.7437 39.4076 24.5444 39.5854 24.3458C42.9292 20.5875 44.3417 16.8166 43.0333 14.552C41.7792 12.3791 38.0479 11.7312 33.375 12.6395C32.9153 12.7298 32.4576 12.8312 32.0021 12.9437C31.9146 12.6437 31.8222 12.3451 31.725 12.0479C30.1396 7.27079 27.5792 4.16454 24.9625 4.16663C22.4542 4.16663 20.0292 7.07704 18.4813 11.5791C18.3285 12.0236 18.1875 12.4708 18.0583 12.9208C17.7542 12.8458 17.4486 12.7764 17.1417 12.7125C12.2125 11.702 8.24376 12.3687 6.93751 14.6375C5.68542 16.8104 6.99376 20.3666 10.1208 23.9541C10.4319 24.3083 10.7514 24.6555 11.0792 24.9958C10.6917 25.3916 10.3271 25.7895 9.98542 26.1854C6.93334 29.7229 5.70001 33.2187 6.95001 35.3833C8.24167 37.6208 12.1542 38.352 16.9188 37.4145C17.3049 37.3382 17.6889 37.252 18.0708 37.1562C18.2097 37.6437 18.3632 38.1277 18.5313 38.6083C20.0729 43.0187 22.4833 45.8333 24.9833 45.8333C27.5667 45.8333 30.1542 42.8062 31.7229 38.2104C31.8479 37.8479 31.9625 37.4708 32.075 37.0833C32.5681 37.2055 33.0646 37.3139 33.5646 37.4083C38.1542 38.277 41.7979 37.5958 43.0458 35.4291C44.3354 33.1895 43.0042 29.4354 39.8083 25.7833ZM8.47917 15.525C9.28334 14.1291 12.5271 13.5833 16.7833 14.4583C17.0556 14.5139 17.3326 14.5764 17.6146 14.6458C17.1985 16.484 16.9048 18.3479 16.7354 20.225C15.2005 21.3043 13.7371 22.4817 12.3542 23.75C12.05 23.4347 11.7535 23.1118 11.4646 22.7812C8.78334 19.7104 7.72501 16.8354 8.47917 15.525ZM16.5771 27.4583C15.5146 26.652 14.525 25.827 13.6271 24.9979C14.5229 24.1729 15.5125 23.352 16.575 22.5479C16.5361 23.3659 16.5174 24.1847 16.5188 25.0041C16.5188 25.8236 16.5382 26.6416 16.5771 27.4583ZM16.5771 35.6666C14.7713 36.0688 12.9069 36.1352 11.0771 35.8625C10.5754 35.8232 10.0872 35.6815 9.64249 35.4461C9.1978 35.2107 8.80612 34.8865 8.49167 34.4937C7.73126 33.1812 8.72292 30.3729 11.3333 27.3479C11.6611 26.9687 12 26.5993 12.35 26.2395C13.7335 27.5156 15.1999 28.6987 16.7396 29.7812C16.9107 31.682 17.2072 33.5695 17.6271 35.4312C17.2799 35.5187 16.9292 35.5979 16.575 35.6687L16.5771 35.6666ZM31.3688 18.9187C30.6701 18.4784 29.9632 18.0527 29.2479 17.6416C28.5424 17.2361 27.8292 16.8451 27.1083 16.4687C28.2934 15.9682 29.5025 15.5267 30.7313 15.1458C31.0071 16.3919 31.2198 17.6512 31.3688 18.9187ZM20.1667 12.1562C21.4917 8.30204 23.4542 5.94788 24.9667 5.94788C26.5771 5.94579 28.6688 8.48538 30.0375 12.6083C30.1264 12.8777 30.2097 13.1486 30.2875 13.4208C28.4907 13.9776 26.7327 14.6527 25.025 15.4416C23.323 14.6431 21.569 13.9603 19.775 13.3979C19.8958 12.9812 20.0264 12.5673 20.1667 12.1562ZM19.3333 15.1229C20.5564 15.5078 21.7594 15.9542 22.9375 16.4604C21.4764 17.2132 20.0542 18.0333 18.6708 18.9208C18.8375 17.5916 19.0604 16.3187 19.3333 15.1229ZM18.6729 31.0812C19.3632 31.5243 20.0639 31.95 20.775 32.3583C21.5 32.775 22.234 33.175 22.9771 33.5583C21.7905 34.082 20.5778 34.5444 19.3438 34.9437C19.057 33.6687 18.8331 32.3803 18.6729 31.0833V31.0812ZM30.0396 37.6354C29.4853 39.4 28.611 41.0476 27.4604 42.4958C27.1763 42.9109 26.8101 43.2634 26.3844 43.5315C25.9587 43.7995 25.4826 43.9774 24.9854 44.0541C23.4667 44.0541 21.5313 41.7937 20.2146 38.0208C20.059 37.575 19.916 37.125 19.7854 36.6708C21.5879 36.0894 23.3489 35.3864 25.0563 34.5666C26.7785 35.3619 28.551 36.0432 30.3625 36.6062C30.2625 36.952 30.1549 37.2951 30.0396 37.6354ZM30.7938 34.877C29.549 34.4883 28.3239 34.0392 27.1229 33.5312C27.8299 33.1604 28.5417 32.768 29.2583 32.3541C29.9944 31.9291 30.7111 31.4937 31.4083 31.0479C31.2691 32.3339 31.064 33.612 30.7938 34.877ZM31.725 24.9958C31.725 26.2611 31.6854 27.525 31.6063 28.7875C30.5792 29.4833 29.4958 30.1625 28.3688 30.8125C27.2438 31.4604 26.1333 32.0562 25.0417 32.5958C23.8931 32.0458 22.7667 31.4527 21.6625 30.8166C20.5653 30.1847 19.4931 29.5118 18.4458 28.7979C18.3486 27.534 18.3 26.2687 18.3 25.002C18.3 23.7368 18.3472 22.4722 18.4417 21.2083C20.536 19.7785 22.7353 18.5089 25.0208 17.4104C26.1542 17.9618 27.2674 18.5527 28.3604 19.1833C29.4576 19.8139 30.534 20.4798 31.5896 21.1812C31.6799 22.4507 31.725 23.7222 31.725 24.9958ZM33.7167 14.3854C37.7208 13.6083 40.7375 14.1312 41.4938 15.4416C42.3 16.8375 41.1458 19.9166 38.2563 23.1625C38.0965 23.3416 37.9313 23.5215 37.7604 23.702C36.3531 22.4298 34.8607 21.2549 33.2938 20.1854C33.136 18.329 32.8541 16.4853 32.45 14.6666C32.8806 14.5611 33.3028 14.4673 33.7167 14.3854ZM33.4458 22.4791C34.5032 23.2509 35.5199 24.077 36.4917 24.9541C35.5244 25.8453 34.5112 26.6854 33.4563 27.4708C33.4882 26.6458 33.5042 25.8208 33.5042 24.9958C33.5042 24.1569 33.4847 23.318 33.4458 22.4791ZM41.5063 34.5395C40.7479 35.8541 37.8229 36.4021 33.8958 35.6604C33.4458 35.5757 32.9847 35.4743 32.5125 35.3562C32.9068 33.514 33.1762 31.6472 33.3188 29.7687C34.883 28.6812 36.3705 27.4874 37.7708 26.1958C38.0167 26.45 38.25 26.7027 38.4708 26.9541C39.723 28.3157 40.7139 29.8962 41.3938 31.6166C41.6114 32.0703 41.7336 32.5637 41.753 33.0664C41.7723 33.5692 41.6884 34.0705 41.5063 34.5395Z" fill="#CCCCCC"/>
</svg>
