<svg xmlns="http://www.w3.org/2000/svg" width="76" height="76" fill="none" viewBox="0 0 76 76"><path fill="#CCC" d="M58.5833 30.115C56.2084 29.2971 54.1122 27.8264 52.5349 25.8717C50.7966 23.6937 48.5831 21.9423 46.0638 20.7513C43.5446 19.5602 40.7863 18.9612 37.9999 19C34.2517 18.7346 30.5411 19.8906 27.6069 22.238C24.6728 24.5853 22.7304 27.9517 22.1666 31.6667C23.2771 29.8086 24.9484 28.3508 26.94 27.5029C28.9316 26.655 31.1409 26.4609 33.2499 26.9483C35.6208 27.7901 37.7136 29.2693 39.2983 31.2233C41.0461 33.3839 43.2638 35.1173 45.7825 36.2916C48.3013 37.4659 51.0547 38.0502 53.8333 38C57.5814 38.2655 61.2921 37.1094 64.2262 34.7621C67.1604 32.4147 69.1028 29.0484 69.6666 25.3333C68.5763 27.2136 66.9103 28.6935 64.9146 29.5545C62.9189 30.4155 60.6992 30.612 58.5833 30.115ZM17.4166 45.885C19.7914 46.7029 21.8877 48.1736 23.4649 50.1283C25.2033 52.3063 27.4167 54.0577 29.936 55.2488C32.4553 56.4398 35.2136 57.0388 37.9999 57C41.7481 57.2655 45.4587 56.1094 48.3929 53.7621C51.3271 51.4147 53.2695 48.0484 53.8333 44.3333C52.7228 46.1914 51.0515 47.6493 49.0598 48.4971C47.0682 49.345 44.8589 49.5392 42.7499 49.0517C40.3791 48.21 38.2862 46.7307 36.7016 44.7767C34.949 42.6215 32.7304 40.8919 30.2128 39.7181C27.6952 38.5443 24.9441 37.9569 22.1666 38C18.4184 37.7346 14.7078 38.8906 11.7736 41.238C8.83944 43.5853 6.89705 46.9517 6.33325 50.6667C7.42356 48.7864 9.08954 47.3065 11.0853 46.4455C13.081 45.5845 15.3006 45.388 17.4166 45.885Z"/></svg>