<svg width="50" height="50" viewBox="0 0 50 50" fill="none" xmlns="http://www.w3.org/2000/svg">
<path d="M0 25V50H50V0H0V25ZM40.2906 23.0063C41.4893 23.2885 42.5786 23.9166 43.4234 24.8125C43.8797 25.3 44.5625 26.1953 44.6203 26.4156C44.6359 26.4813 42.4641 27.9375 41.1453 28.7516C41.0969 28.7844 40.9016 28.5812 40.6891 28.2625C40.0469 27.3266 39.3703 26.9203 38.3375 26.8469C36.8234 26.7484 35.8469 27.5391 35.8547 28.8656C35.8467 29.1902 35.9192 29.5118 36.0656 29.8016C36.4 30.4937 37.0266 30.9078 38.9625 31.7469C42.5438 33.2844 44.0734 34.3016 45.025 35.7422C46.0906 37.3531 46.3266 39.925 45.6109 41.8453C44.8141 43.9203 42.8438 45.3359 40.0766 45.8C39.2219 45.9547 37.1875 45.9297 36.2672 45.7594C34.2578 45.4016 32.3531 44.4078 31.1812 43.1063C30.7172 42.6016 29.8219 41.275 29.8797 41.1859C29.9047 41.1531 30.1078 41.0234 30.3359 40.8922L32.1922 39.8172L33.6328 38.9797L33.9344 39.4266C34.3578 40.0687 35.2766 40.9484 35.8312 41.2406C37.4266 42.0875 39.6156 41.9656 40.6984 40.9969C41.1375 40.6313 41.3828 40.0688 41.35 39.5C41.35 38.9219 41.2766 38.6625 40.975 38.2297C40.5844 37.6766 39.7953 37.2047 37.5406 36.2281C34.9609 35.1125 33.8453 34.4297 32.8375 33.3313C32.2031 32.6082 31.7338 31.7556 31.4625 30.8328C31.275 30.125 31.2266 28.35 31.3734 27.6422C31.9031 25.1437 33.7906 23.4109 36.5 22.8984C37.3797 22.7281 39.4297 22.7922 40.2922 23.0047L40.2906 23.0063ZM28.5562 25.0984L28.5719 27.1406H22.0609V45.6391H17.4547V27.1406H10.9531V25.1391C10.9531 24.0234 10.9781 23.0969 11.0094 23.0719C11.0344 23.0391 14.9891 23.0234 19.7906 23.0312L28.5312 23.0562L28.5562 25.0984Z" fill="#CCCCCC"/>
</svg>
